<svg id="_002-call" data-name="002-call" xmlns="http://www.w3.org/2000/svg" width="18" height="18" viewBox="0 0 18 18">
  <g id="Group_17" data-name="Group 17">
    <path id="Path_48" data-name="Path 48" d="M16.556,11.815a10.22,10.22,0,0,1-3.209-.511,1.467,1.467,0,0,0-1.427.3L9.9,13.132A11.185,11.185,0,0,1,4.867,8.1L6.35,6.133a1.455,1.455,0,0,0,.358-1.474,10.235,10.235,0,0,1-.513-3.215A1.446,1.446,0,0,0,4.75,0H1.444A1.446,1.446,0,0,0,0,1.444,16.574,16.574,0,0,0,16.556,18,1.446,1.446,0,0,0,18,16.556v-3.3A1.446,1.446,0,0,0,16.556,11.815Z" fill="#333"/>
  </g>
</svg>
