<svg xmlns="http://www.w3.org/2000/svg" width="18" height="12.657" viewBox="0 0 18 12.657">
  <g id="_004-mail" data-name="004-mail" transform="translate(0 -76)">
    <g id="Group_19" data-name="Group 19" transform="translate(12.341 76.911)">
      <g id="Group_18" data-name="Group 18">
        <path id="Path_50" data-name="Path 50" d="M357.71,101.721l-5.5,5.417,5.5,5.417a1.551,1.551,0,0,0,.16-.677V102.4A1.551,1.551,0,0,0,357.71,101.721Z" transform="translate(-352.211 -101.721)" fill="#fff"/>
      </g>
    </g>
    <g id="Group_21" data-name="Group 21" transform="translate(0.911 76)">
      <g id="Group_20" data-name="Group 20">
        <path id="Path_51" data-name="Path 51" d="M41.222,76H26.4a1.552,1.552,0,0,0-.677.16l6.971,6.993a1.573,1.573,0,0,0,2.235,0L41.9,76.16A1.552,1.552,0,0,0,41.222,76Z" transform="translate(-25.721 -76)" fill="#fff"/>
      </g>
    </g>
    <g id="Group_23" data-name="Group 23" transform="translate(0 76.911)">
      <g id="Group_22" data-name="Group 22">
        <path id="Path_52" data-name="Path 52" d="M.16,101.721A1.551,1.551,0,0,0,0,102.4v9.48a1.551,1.551,0,0,0,.16.677l5.5-5.417Z" transform="translate(0 -101.721)" fill="#fff"/>
      </g>
    </g>
    <g id="Group_25" data-name="Group 25" transform="translate(0.911 83.032)">
      <g id="Group_24" data-name="Group 24">
        <path id="Path_53" data-name="Path 53" d="M36.445,277.211l-.772.778a2.622,2.622,0,0,1-3.725,0l-.772-.778-5.455,5.464a1.552,1.552,0,0,0,.677.16H41.222a1.552,1.552,0,0,0,.677-.16Z" transform="translate(-25.721 -277.211)" fill="#fff"/>
      </g>
    </g>
  </g>
</svg>
