<svg xmlns="http://www.w3.org/2000/svg" width="40" height="40" viewBox="0 0 40 40">
  <g id="fb" transform="translate(-1305 -4404)">
    <rect id="Rectangle_22" data-name="Rectangle 22" width="38" height="38" rx="8" transform="translate(1306 4406)" fill="#fff"/>
    <path id="_001-facebook" data-name="001-facebook" d="M37.115,0H2.885A2.885,2.885,0,0,0,0,2.884v34.23A2.885,2.885,0,0,0,2.885,40H21.367V24.531h-5.2V18.476h5.2V14.02c0-5.167,3.155-7.98,7.764-7.98a42.726,42.726,0,0,1,4.658.238v5.4H30.611c-2.508,0-2.993,1.192-2.993,2.941v3.856h6l-.781,6.055H27.617V40h9.5A2.885,2.885,0,0,0,40,37.115V2.884A2.885,2.885,0,0,0,37.115,0Zm0,0" transform="translate(1305 4404)" fill="#3b5998"/>
  </g>
</svg>
