<svg xmlns="http://www.w3.org/2000/svg" width="40" height="40" viewBox="0 0 40 40">
  <g id="gg" transform="translate(-1505 -4404)">
    <rect id="Rectangle_23" data-name="Rectangle 23" width="38" height="38" rx="8" transform="translate(1506 4406)" fill="#fff"/>
    <g id="_003-google-plus-social-logotype" data-name="003-google-plus-social-logotype" transform="translate(1505 4404)">
      <path id="Path_58" data-name="Path 58" d="M37.872,0H2.128A2.128,2.128,0,0,0,0,2.128V37.872A2.128,2.128,0,0,0,2.128,40H37.872A2.128,2.128,0,0,0,40,37.872V2.128A2.128,2.128,0,0,0,37.872,0ZM13.229,36.406c-6.193,0-9.179-2.951-9.179-6.12a6.162,6.162,0,0,1,3.287-5.219c2.646-1.626,6.235-1.839,8.157-1.971a4.481,4.481,0,0,1-1.281-2.908,3.873,3.873,0,0,1,.425-1.669c-.47.044-.938.086-1.365.086a6.759,6.759,0,0,1-7.087-6.72A7.7,7.7,0,0,1,8.917,6.151a13.018,13.018,0,0,1,8.071-2.557H25.4L22.624,5.339H19.979a7.213,7.213,0,0,1,3.029,5.778c0,3.164-1.791,4.666-3.583,6.077a3,3,0,0,0-1.2,2.1,2.362,2.362,0,0,0,1.11,1.84l1.539,1.2c1.878,1.583,3.586,3.037,3.586,5.993C24.46,32.343,20.573,36.406,13.229,36.406ZM35.95,19.477H31.657v4.305H29.545V19.477H25.273V17.34h4.272V13.062h2.113V17.34H35.95v2.136Z" fill="#dd4b39"/>
      <path id="Path_59" data-name="Path 59" d="M32.265,19.773c0-2.947-1.756-7.527-5.142-7.527A3.813,3.813,0,0,0,24.264,13.6a4.724,4.724,0,0,0-.9,3.028c0,2.739,1.591,7.279,5.1,7.279a4.172,4.172,0,0,0,2.775-1.144A4.145,4.145,0,0,0,32.265,19.773Z" transform="translate(-13.291 -7.264)" fill="#dd4b39"/>
      <path id="Path_60" data-name="Path 60" d="M27.085,57.134a6.493,6.493,0,0,0-.938-.041,16.164,16.164,0,0,0-4.287.657c-.9.325-3.51,1.307-3.51,4.212s2.816,4.994,7.183,4.994c3.92,0,6-1.886,6-4.419C31.537,60.446,30.189,59.344,27.085,57.134Z" transform="translate(-10.361 -32.107)" fill="#dd4b39"/>
    </g>
  </g>
</svg>
