<svg xmlns="http://www.w3.org/2000/svg" xmlns:xlink="http://www.w3.org/1999/xlink" width="40" height="40" viewBox="0 0 40 40">
  <defs>
    <clipPath id="clip-path">
      <rect id="Rectangle_28" data-name="Rectangle 28" width="40" height="40" rx="4" transform="translate(1432 4335)" fill="#fff"/>
    </clipPath>
  </defs>
  <g id="line" transform="translate(-1455 -4404)">
    <rect id="Rectangle_29" data-name="Rectangle 29" width="31" height="33" transform="translate(1460 4408)" fill="#fff"/>
    <g id="Mask_Group_4" data-name="Mask Group 4" transform="translate(23 69)" clip-path="url(#clip-path)">
      <g id="line-2" data-name="line" transform="translate(1432 4335)">
        <path id="Path_62" data-name="Path 62" d="M179.278,165.175h-.337a.6.6,0,0,0-.6.6v6.16a.6.6,0,0,0,.6.6h.337a.6.6,0,0,0,.6-.6v-6.16A.6.6,0,0,0,179.278,165.175Z" transform="translate(-162.704 -150.772)" fill="#00bd00"/>
        <path id="Path_63" data-name="Path 63" d="M213.443,165.175a.772.772,0,0,0-.771.771V169.5s-3.08-4.018-3.127-4.07a.768.768,0,0,0-.6-.258.792.792,0,0,0-.741.8v5.792a.771.771,0,0,0,1.542,0v-3.537s3.127,4.053,3.173,4.1a.767.767,0,0,0,.522.212.8.8,0,0,0,.778-.8v-5.791A.771.771,0,0,0,213.443,165.175Z" transform="translate(-190.019 -150.772)" fill="#00bd00"/>
        <path id="Path_64" data-name="Path 64" d="M122.9,171h-2.314v-5.052a.771.771,0,0,0-1.542,0v5.824a.771.771,0,0,0,.771.771H122.9a.772.772,0,0,0,0-1.543Z" transform="translate(-108.63 -150.771)" fill="#00bd00"/>
        <path id="Path_65" data-name="Path 65" d="M291.4,166.717a.771.771,0,0,0,0-1.542H288.31a.771.771,0,0,0-.771.771v5.824a.771.771,0,0,0,.771.771H291.4a.772.772,0,0,0,0-1.543h-2.314v-1.369H291.4a.771.771,0,0,0,0-1.542h-2.314v-1.37Z" transform="translate(-262.397 -150.772)" fill="#00bd00"/>
        <path id="Path_66" data-name="Path 66" d="M0,0V40H40V0ZM34.634,18.389a7.187,7.187,0,0,1-.116.886A9.777,9.777,0,0,1,33.4,22.483c-.262.473-1.546,2.272-1.94,2.746-2.164,2.608-5.789,5.616-11.849,8.542a.8.8,0,0,1-1.142-.806l.305-2.749a.8.8,0,0,0-.706-.88C10.893,28.586,5.357,23.7,5.357,17.792,5.357,11.361,11.91,6.148,20,6.148c7.857,0,14.269,4.924,14.624,11.1A11.294,11.294,0,0,1,34.634,18.389Z" fill="#00bd00"/>
      </g>
    </g>
  </g>
</svg>
