<svg id="_001-calendar" data-name="001-calendar" xmlns="http://www.w3.org/2000/svg" width="20" height="20" viewBox="0 0 20 20">
  <g id="Group_49" data-name="Group 49">
    <g id="Group_48" data-name="Group 48">
      <path id="Path_67" data-name="Path 67" d="M17.857,2.143H15.714V.714a.714.714,0,0,0-1.429,0V2.143H5.714V.714a.714.714,0,1,0-1.429,0V2.143H2.143A2.143,2.143,0,0,0,0,4.286V17.857A2.143,2.143,0,0,0,2.143,20H17.857A2.143,2.143,0,0,0,20,17.857V4.286A2.143,2.143,0,0,0,17.857,2.143Zm.714,15.714a.714.714,0,0,1-.714.714H2.143a.714.714,0,0,1-.714-.714V8.571H18.571Zm0-10.714H1.429V4.286a.714.714,0,0,1,.714-.714H4.286V5A.714.714,0,1,0,5.714,5V3.571h8.571V5a.714.714,0,1,0,1.429,0V3.571h2.143a.714.714,0,0,1,.714.714V7.143Z" fill="#333"/>
    </g>
  </g>
  <g id="Group_51" data-name="Group 51" transform="translate(3.417 9.8)">
    <g id="Group_50" data-name="Group 50">
      <path id="Path_68" data-name="Path 68" d="M88.033,238.933h-1.8a.9.9,0,0,0,0,1.8h1.8a.9.9,0,0,0,0-1.8Z" transform="translate(-85.333 -238.933)" fill="#333"/>
    </g>
  </g>
  <g id="Group_53" data-name="Group 53" transform="translate(8.2 9.8)">
    <g id="Group_52" data-name="Group 52">
      <path id="Path_69" data-name="Path 69" d="M207.5,238.933h-1.8a.9.9,0,1,0,0,1.8h1.8a.9.9,0,1,0,0-1.8Z" transform="translate(-204.8 -238.933)" fill="#333"/>
    </g>
  </g>
  <g id="Group_55" data-name="Group 55" transform="translate(12.983 9.8)">
    <g id="Group_54" data-name="Group 54">
      <path id="Path_70" data-name="Path 70" d="M326.967,238.933h-1.8a.9.9,0,0,0,0,1.8h1.8a.9.9,0,0,0,0-1.8Z" transform="translate(-324.267 -238.933)" fill="#333"/>
    </g>
  </g>
  <g id="Group_57" data-name="Group 57" transform="translate(3.417 12.6)">
    <g id="Group_56" data-name="Group 56">
      <path id="Path_71" data-name="Path 71" d="M88.033,307.2h-1.8a.9.9,0,1,0,0,1.8h1.8a.9.9,0,1,0,0-1.8Z" transform="translate(-85.333 -307.2)" fill="#333"/>
    </g>
  </g>
  <g id="Group_59" data-name="Group 59" transform="translate(8.2 12.6)">
    <g id="Group_58" data-name="Group 58">
      <path id="Path_72" data-name="Path 72" d="M207.5,307.2h-1.8a.9.9,0,1,0,0,1.8h1.8a.9.9,0,1,0,0-1.8Z" transform="translate(-204.8 -307.2)" fill="#333"/>
    </g>
  </g>
  <g id="Group_61" data-name="Group 61" transform="translate(12.983 12.6)">
    <g id="Group_60" data-name="Group 60">
      <path id="Path_73" data-name="Path 73" d="M326.967,307.2h-1.8a.9.9,0,0,0,0,1.8h1.8a.9.9,0,1,0,0-1.8Z" transform="translate(-324.267 -307.2)" fill="#333"/>
    </g>
  </g>
  <g id="Group_63" data-name="Group 63" transform="translate(3.417 14.972)">
    <g id="Group_62" data-name="Group 62">
      <path id="Path_74" data-name="Path 74" d="M88.033,375.467h-1.8a.9.9,0,1,0,0,1.8h1.8a.9.9,0,1,0,0-1.8Z" transform="translate(-85.333 -375.467)" fill="#333"/>
    </g>
  </g>
  <g id="Group_65" data-name="Group 65" transform="translate(8.2 14.972)">
    <g id="Group_64" data-name="Group 64">
      <path id="Path_75" data-name="Path 75" d="M207.5,375.467h-1.8a.9.9,0,1,0,0,1.8h1.8a.9.9,0,1,0,0-1.8Z" transform="translate(-204.8 -375.467)" fill="#333"/>
    </g>
  </g>
  <g id="Group_67" data-name="Group 67" transform="translate(12.983 14.972)">
    <g id="Group_66" data-name="Group 66">
      <path id="Path_76" data-name="Path 76" d="M326.967,375.467h-1.8a.9.9,0,0,0,0,1.8h1.8a.9.9,0,1,0,0-1.8Z" transform="translate(-324.267 -375.467)" fill="#333"/>
    </g>
  </g>
</svg>
