<svg id="_003-dollar" data-name="003-dollar" xmlns="http://www.w3.org/2000/svg" width="17" height="17" viewBox="0 0 17 17">
  <path id="Path_79" data-name="Path 79" d="M8.5,0A8.5,8.5,0,1,0,17,8.5,8.51,8.51,0,0,0,8.5,0Zm0,15.583A7.083,7.083,0,1,1,15.583,8.5,7.091,7.091,0,0,1,8.5,15.583Zm0,0" fill="#333"/>
  <path id="Path_80" data-name="Path 80" d="M139.471,65.347a2.41,2.41,0,0,0-.283-.1V64h-1.417v1.251a2.478,2.478,0,0,0-.254,4.653l1.378.558a1.062,1.062,0,1,1-1.478.975v-.708H136v.708a2.452,2.452,0,0,0,1.771,2.375v1.519h1.417V73.81c.066-.02.132-.042.2-.068a2.479,2.479,0,0,0,.056-4.587l-1.378-.558a1.063,1.063,0,1,1,.844-1.95,1.014,1.014,0,0,1,.634.895v.708h1.417v-.708a2.414,2.414,0,0,0-1.488-2.194Zm0,0" transform="translate(-129.98 -61.167)" fill="#333"/>
</svg>
